<mxfile host="app.diagrams.net" agent="Mozilla/5.0 (Windows NT 10.0; Win64; x64) AppleWebKit/537.36 (KHTML, like Gecko) Chrome/139.0.0.0 Safari/537.36 Edg/139.0.0.0" version="28.2.0">
  <diagram name="Cloud Architecture" id="architecture-diagram">
    <mxGraphModel dx="2058" dy="1146" grid="1" gridSize="10" guides="1" tooltips="1" connect="1" arrows="1" fold="1" page="1" pageScale="1" pageWidth="850" pageHeight="1100" math="0" shadow="0">
      <root>
        <mxCell id="0" />
        <mxCell id="1" parent="0" />
        <mxCell id="2" value="Internet" style="shape=cloud;whiteSpace=wrap;html=1;fillColor=#dae8fc;strokeColor=#6c8ebf;" parent="1" vertex="1">
          <mxGeometry x="275" y="40" width="300" height="80" as="geometry" />
        </mxCell>
        <mxCell id="3" value="Cloud Load Balancer&lt;br&gt;(Cloud Armor)" style="shape=mxgraph.gcp2.load_balancing;whiteSpace=wrap;html=1;fillColor=#dae8fc;strokeColor=#6c8ebf;" parent="1" vertex="1">
          <mxGeometry x="350" y="190" width="150" height="78" as="geometry" />
        </mxCell>
        <mxCell id="4" value="" style="endArrow=classic;html=1;rounded=0;entryX=0.5;entryY=0;entryDx=0;entryDy=0;" parent="1" source="2" target="3" edge="1">
          <mxGeometry width="50" height="50" relative="1" as="geometry">
            <mxPoint x="425" y="120" as="sourcePoint" />
            <mxPoint x="425" y="180" as="targetPoint" />
          </mxGeometry>
        </mxCell>
        <mxCell id="5" value="Cloud Run&lt;br&gt;(Notes API)" style="shape=mxgraph.gcp2.cloud_run;whiteSpace=wrap;html=1;fillColor=#dae8fc;strokeColor=#6c8ebf;" parent="1" vertex="1">
          <mxGeometry x="350" y="390" width="150" height="78" as="geometry" />
        </mxCell>
        <mxCell id="6" value="" style="endArrow=classic;html=1;rounded=0;entryX=0.5;entryY=0;entryDx=0;entryDy=0;" parent="1" source="3" target="5" edge="1">
          <mxGeometry width="50" height="50" relative="1" as="geometry">
            <mxPoint x="425" y="258" as="sourcePoint" />
            <mxPoint x="425" y="320" as="targetPoint" />
          </mxGeometry>
        </mxCell>
        <mxCell id="7" value="VPC Network" style="rounded=1;whiteSpace=wrap;html=1;dashed=1;fillColor=none;strokeColor=#d6b656;" parent="1" vertex="1">
          <mxGeometry x="160" y="480" width="530" height="280" as="geometry" />
        </mxCell>
        <mxCell id="8" value="" style="endArrow=classic;html=1;rounded=0;exitX=0.5;exitY=1;exitDx=0;exitDy=0;entryX=0.5;entryY=0;entryDx=0;entryDy=0;" parent="1" source="5" edge="1">
          <mxGeometry width="50" height="50" relative="1" as="geometry">
            <mxPoint x="425" y="468" as="sourcePoint" />
            <mxPoint x="425" y="550" as="targetPoint" />
          </mxGeometry>
        </mxCell>
        <mxCell id="9" value="Cloud SQL&lt;br&gt;(PostgreSQL 15)" style="shape=mxgraph.gcp2.cloud_sql;whiteSpace=wrap;html=1;fillColor=#dae8fc;strokeColor=#6c8ebf;" parent="1" vertex="1">
          <mxGeometry x="220" y="610" width="150" height="78" as="geometry" />
        </mxCell>
        <mxCell id="10" value="Secret Manager" style="shape=mxgraph.gcp2.secret_manager;whiteSpace=wrap;html=1;fillColor=#dae8fc;strokeColor=#6c8ebf;" parent="1" vertex="1">
          <mxGeometry x="480" y="610" width="150" height="78" as="geometry" />
        </mxCell>
        <mxCell id="11" value="&lt;ul&gt;&lt;li&gt;Private IP only&lt;/li&gt;&lt;li&gt;SSL enabled&lt;/li&gt;&lt;li&gt;Automated backup&lt;/li&gt;&lt;/ul&gt;" style="text;html=1;strokeColor=none;fillColor=none;align=left;verticalAlign=middle;whiteSpace=wrap;rounded=0;" parent="1" vertex="1">
          <mxGeometry x="220" y="690" width="150" height="60" as="geometry" />
        </mxCell>
        <mxCell id="12" value="&lt;ul&gt;&lt;li&gt;Database passwords&lt;/li&gt;&lt;li&gt;API keys&lt;/li&gt;&lt;li&gt;Encrypted at rest&lt;/li&gt;&lt;/ul&gt;" style="text;html=1;strokeColor=none;fillColor=none;align=left;verticalAlign=middle;whiteSpace=wrap;rounded=0;" parent="1" vertex="1">
          <mxGeometry x="480" y="690" width="150" height="60" as="geometry" />
        </mxCell>
        <mxCell id="13" value="&lt;ul&gt;&lt;li&gt;Container: FastAPI + Python&lt;/li&gt;&lt;li&gt;Auto-scaling (0-10 instances)&lt;/li&gt;&lt;li&gt;Service Account&lt;/li&gt;&lt;li&gt;Health checks &amp;amp; probes&lt;/li&gt;&lt;/ul&gt;" style="text;html=1;strokeColor=none;fillColor=none;align=left;verticalAlign=middle;whiteSpace=wrap;rounded=0;" parent="1" vertex="1">
          <mxGeometry x="510" y="390" width="220" height="80" as="geometry" />
        </mxCell>
        <mxCell id="14" value="Private Network" style="text;html=1;strokeColor=none;fillColor=none;align=center;verticalAlign=middle;whiteSpace=wrap;rounded=0;" parent="1" vertex="1">
          <mxGeometry x="395" y="490" width="60" height="30" as="geometry" />
        </mxCell>
      </root>
    </mxGraphModel>
  </diagram>
</mxfile>
